<?xml version="1.0" encoding="utf-8"?>
<!-- Generator: Adobe Illustrator 24.0.1, SVG Export Plug-In . SVG Version: 6.00 Build 0)  -->
<svg version="1.1" id="Layer_1" xmlns="http://www.w3.org/2000/svg" xmlns:xlink="http://www.w3.org/1999/xlink" x="0px" y="0px"
	 viewBox="0 0 900 700" style="enable-background:new 0 0 900 700;" xml:space="preserve">
<style type="text/css">
	.st0{fill:#F9ECEC;}
	.st1{fill:#64BAF4;}
	.st2{fill:#EAACAC;}
	.st3{fill:#ECF2F9;}
</style>
<g>
	<path class="st0" d="M129.74,37.01h551.61c0.01,23.29,9.81,45.52,26.64,61.29c-2.81,8.47-4.23,17.31-4.23,26.39
		c0,37.21,29.18,70.59,66.65,80.78l0.04,204.62H129.74l0-140.57l-0.08-105.97L129.74,37.01z"/>
	<g>
		<g>
			<g>
				<path class="st1" d="M257.18,190.32c-7.17,0-12.7-1.49-16.59-4.46c-3.89-2.97-6.58-6.97-8.06-12
					c-1.49-5.03-2.23-10.6-2.23-16.72v-42.22c0-6.56,0.76-12.32,2.29-17.31c1.53-4.98,4.26-8.87,8.19-11.67
					c3.93-2.8,9.39-4.19,16.39-4.19c6.38,0,11.38,1.22,15.01,3.67c3.63,2.45,6.23,5.92,7.8,10.42c1.57,4.5,2.36,9.86,2.36,16.06
					v6.42h-9.44v-6.16c0-4.63-0.37-8.61-1.11-11.93c-0.74-3.32-2.25-5.9-4.52-7.74c-2.27-1.84-5.64-2.75-10.1-2.75
					c-4.72,0-8.28,0.98-10.69,2.95c-2.41,1.97-4.02,4.74-4.85,8.33c-0.83,3.59-1.25,7.74-1.25,12.46v45.23
					c0,5.24,0.5,9.62,1.51,13.11c1,3.5,2.73,6.12,5.18,7.87c2.45,1.75,5.81,2.62,10.1,2.62c4.46,0,7.82-0.96,10.1-2.88
					c2.27-1.92,3.78-4.61,4.52-8.06c0.74-3.45,1.11-7.49,1.11-12.13v-6.95h9.44v6.29c0,6.21-0.72,11.71-2.16,16.52
					c-1.44,4.81-3.98,8.54-7.6,11.21C268.96,188.98,263.82,190.32,257.18,190.32z"/>
			</g>
			<g>
				<path class="st1" d="M292.19,189l22.42-106.2h10.49L347.65,189h-9.83l-5.24-28.45h-25.3L301.89,189H292.19z M308.71,153.34
					h22.55l-11.41-57.3L308.71,153.34z"/>
			</g>
			<g>
				<path class="st1" d="M360.36,189V82.8h10.1v56.12l28.32-56.12h9.57l-21.9,45.63L413.07,189h-9.83l-23.34-53.1l-9.44,17.31V189
					H360.36z"/>
			</g>
			<g>
				<path class="st1" d="M422.38,189V82.8h38.42v7.74h-28.32v39.86h23.08v7.34h-23.08v43.79h28.58V189H422.38z"/>
			</g>
			<g>
				<path class="st1" d="M497.24,190.32c-5.77,0-10.55-1.2-14.36-3.61c-3.8-2.4-6.67-5.77-8.59-10.09
					c-1.92-4.33-3.1-9.38-3.54-15.14l8.78-2.62c0.44,4.37,1.22,8.33,2.36,11.87c1.13,3.54,2.93,6.34,5.38,8.39
					c2.45,2.05,5.81,3.08,10.1,3.08c4.72,0,8.39-1.22,11.01-3.67c2.62-2.45,3.93-6.34,3.93-11.67c0-4.63-1.16-8.67-3.47-12.13
					c-2.32-3.45-5.49-7.06-9.51-10.82l-18.75-17.96c-3.32-3.23-5.77-6.58-7.34-10.03c-1.57-3.45-2.36-7.23-2.36-11.34
					c0-7.34,2.18-12.98,6.56-16.91c4.37-3.93,10.18-5.9,17.44-5.9c3.76,0,7.15,0.48,10.16,1.44c3.02,0.96,5.59,2.51,7.74,4.65
					c2.14,2.14,3.82,4.92,5.05,8.33c1.22,3.41,2.05,7.56,2.49,12.45l-8.52,2.23c-0.35-4.46-1.07-8.28-2.16-11.47
					c-1.09-3.19-2.8-5.62-5.11-7.28c-2.32-1.66-5.53-2.49-9.64-2.49c-4.37,0-7.95,1.14-10.75,3.41c-2.8,2.27-4.2,5.81-4.2,10.62
					c0,2.88,0.55,5.51,1.64,7.87c1.09,2.36,3.04,4.9,5.83,7.6l18.75,17.7c4.2,3.93,7.82,8.31,10.88,13.11
					c3.06,4.81,4.59,10.23,4.59,16.26c0,5.33-1.03,9.79-3.08,13.37c-2.05,3.58-4.92,6.27-8.59,8.06
					C506.29,189.42,502.05,190.32,497.24,190.32z"/>
			</g>
			<g>
				<path class="st1" d="M554.06,189V82.8h22.81c4.81,0,8.87,0.61,12.19,1.83c3.32,1.23,5.99,3.02,8,5.38
					c2.01,2.36,3.45,5.18,4.33,8.46c0.87,3.28,1.31,6.88,1.31,10.82c0,3.41-0.39,6.71-1.18,9.9c-0.79,3.19-2.14,5.9-4.07,8.13
					c-1.92,2.23-4.63,3.69-8.13,4.39c4.11,1.14,7.32,3.08,9.64,5.83s3.95,5.94,4.92,9.57c0.96,3.63,1.44,7.37,1.44,11.21
					c0,4.2-0.37,8.15-1.12,11.87c-0.74,3.72-2.05,6.97-3.93,9.77c-1.88,2.8-4.44,5-7.67,6.62c-3.23,1.62-7.34,2.43-12.32,2.43
					H554.06z M564.02,128.56h14.42c4.11,0,7.25-0.81,9.44-2.43c2.18-1.62,3.71-3.84,4.59-6.69c0.87-2.84,1.31-6.23,1.31-10.16
					c0-4.28-0.59-7.82-1.77-10.62c-1.18-2.8-3.21-4.85-6.1-6.16c-2.88-1.31-7.04-1.97-12.45-1.97h-9.44V128.56z M564.02,181.53
					h14.29c6.9,0,11.51-1.88,13.83-5.64c2.31-3.76,3.47-9.61,3.47-17.57c0-4.28-0.52-8.08-1.57-11.41c-1.05-3.32-2.82-5.92-5.31-7.8
					c-2.49-1.88-5.88-2.82-10.16-2.82h-14.55V181.53z"/>
			</g>
			<g>
				<path class="st1" d="M636.66,189v-35.27L612.66,82.8h9.7l19.14,59l18.35-59h9.83l-23.34,70.93V189H636.66z"/>
			</g>
		</g>
		<g>
			<g>
				<path class="st2" d="M182.89,367.67V212.14h67.78v21.89h-36.1v41.28h27.84v22.08h-27.84v48.77h36.48v21.51H182.89z"/>
			</g>
			<g>
				<path class="st2" d="M266.41,367.67l2.69-155.53h33.6l19.2,98.12l20.55-98.12h32.45l2.69,155.53h-23.04l-2.5-105.41
					l-19.78,105.41H312.5l-20.74-106.18l-2.11,106.18H266.41z"/>
			</g>
			<g>
				<path class="st2" d="M399.09,367.67V212.14h31.49v155.53H399.09z"/>
			</g>
			<g>
				<path class="st2" d="M454.39,367.67V212.14h31.68v134.02h36.48v21.51H454.39z"/>
			</g>
			<g>
				<path class="st2" d="M546.17,367.67v-61.64l-30.34-93.89h29.76l16.7,54.72l15.55-54.72h28.8l-29.95,93.89v61.64H546.17z"/>
			</g>
		</g>
		<g>
			<g>
				<path class="st2" d="M717.11,368.35H620.5v-42.1h13.6v22.42h25.64v-17.29h13.72v17.29h30.29v-22.66h13.36V368.35z"/>
			</g>
			<g>
				<path class="st2" d="M717.11,302.39l-96.61,18.37V303.7l66.79-11.45l-66.79-10.73v-17.77l96.61,18.37V302.39z"/>
			</g>
			<g>
				<path class="st2" d="M717.11,253.85H620.5v-42.1h13.6v22.42h25.64v-17.29h13.72v17.29h30.29v-22.66h13.36V253.85z"/>
			</g>
		</g>
	</g>
	<path class="st1" d="M864.94,411.33h-70.96L794,208.67c0,0,0,0,0,0v-11.94l0-1.7c0,0,0,0,0,0v-13.06
		c-33.26,0-63.54-27.3-63.54-57.29c0-8.65,1.88-16.96,5.58-24.7l4.81-10.05l-9.03-6.53c-14.89-10.76-23.78-28.13-23.78-46.45V13.31
		h-9.27h-17.42H461.91h-23.82H117.88c-6.56,0-11.86,5.3-11.86,11.86v386.16H35.06c-6.56,0-11.86,5.3-11.86,11.86v11.38
		c0,44.31,36.05,80.33,80.33,80.33h0h294.82v51.33c0,21.23-17.27,38.51-38.51,38.51c-22.6,0-40.98,18.39-40.98,40.98
		c0,22.6,18.38,40.98,40.98,40.98h180.29c22.6,0,40.98-18.38,40.98-40.98c0-22.6-18.38-40.98-40.98-40.98
		c-21.23,0-38.51-17.27-38.51-38.51v-51.33h294.83c44.32,0,80.33-36.05,80.33-80.33v-11.38
		C876.79,416.63,871.49,411.33,864.94,411.33z M129.74,37.01h551.61c0.01,23.29,9.81,45.52,26.64,61.29
		c-2.81,8.47-4.23,17.31-4.23,26.39c0,37.21,29.18,70.59,66.65,80.78l0.04,204.62H129.74l0-140.57l-0.08-105.97L129.74,37.01z
		 M540.15,635.13c5.83,0,10.58,4.75,10.58,10.58c0,5.83-4.75,10.58-10.58,10.58H359.85c-5.83,0-10.58-4.75-10.58-10.58
		c0-5.83,4.75-10.58,10.58-10.58c38,0,68.91-30.91,68.91-68.91v-51.33h42.47v51.33C471.23,604.22,502.15,635.13,540.15,635.13z
		 M796.57,491.21l-693.03-0.04c-31.01,0-56.36-25.12-56.62-56.17l806.26,0.04C852.89,466.05,827.59,491.21,796.57,491.21z"/>
	<path class="st3" d="M540.15,635.13c5.83,0,10.58,4.75,10.58,10.58c0,5.83-4.75,10.58-10.58,10.58H359.85
		c-5.83,0-10.58-4.75-10.58-10.58c0-5.83,4.75-10.58,10.58-10.58c38,0,68.91-30.91,68.91-68.91v-51.33h42.47v51.33
		C471.23,604.22,502.15,635.13,540.15,635.13z"/>
	<path class="st3" d="M796.57,491.21l-693.03-0.04c-31.01,0-56.36-25.12-56.62-56.17l806.26,0.04
		C852.89,466.05,827.59,491.21,796.57,491.21z"/>
</g>
</svg>
